<svg id="Capa_1" enable-background="new 0 0 512 512" height="512" viewBox="0 0 512 512" width="512" xmlns="http://www.w3.org/2000/svg"><g><g><g><g><g><g><g><g><circle cx="256" cy="256" fill="#ffce00" r="256"/></g></g></g></g></g></g></g><path d="m152.944 397.053 114.687 114.687c135.987-6.081 244.369-118.253 244.369-255.74 0-13.752-1.085-27.252-3.173-40.417l-153.583-153.583z" fill="#ffa300"/><g><path d="m340.062 77.751c0-.251.002-.501.005-.751h-168.134c.003.25.005.5.005.751 0 33.162-26.883 60.044-60.045 60.044v123.576c0 53.783 24.412 104.659 66.367 138.311l77.74 62.353 77.739-62.353c41.955-33.651 66.367-84.527 66.367-138.311v-123.576c-33.161 0-60.044-26.883-60.044-60.044z" fill="#fff"/></g><g><path d="m340.062 77.751c0-.251.002-.501.005-.751h-84.067v385.035l77.739-62.353c41.955-33.651 66.367-84.527 66.367-138.311v-123.576c-33.161 0-60.044-26.883-60.044-60.044z" fill="#e9edf5"/></g><g><path d="m256 481.265-87.125-69.881c-22.327-17.908-40.673-41.013-53.055-66.818s-18.927-54.573-18.927-83.194v-138.577h15c24.837 0 45.044-20.207 45.044-45.044l-.003-.575-.178-15.176h198.488l-.182 15.751c0 24.838 20.207 45.044 45.044 45.044h15v138.576c0 28.622-6.545 57.389-18.927 83.194s-30.728 48.91-53.055 66.818zm-129.107-329.976v110.082c0 49.494 22.143 95.642 60.753 126.61l68.354 54.826 68.354-54.826c38.609-30.968 60.753-77.115 60.753-126.61v-110.082c-29.619-6.031-52.95-29.566-58.688-59.289h-140.838c-5.738 29.723-29.069 53.258-58.688 59.289z" fill="#1dd882"/></g><g><path d="m400.107 122.795c-24.837 0-45.044-20.207-45.044-45.044l.181-15.751h-99.244v30h70.419c5.738 29.723 29.069 53.258 58.688 59.289v110.082c0 49.494-22.144 95.642-60.753 126.61l-68.354 54.826v38.458l87.125-69.881c22.327-17.908 40.673-41.013 53.055-66.818s18.927-54.573 18.927-83.194v-138.577z" fill="#06b26b"/></g><g><g><g><g><g><g><g><path d="m296.703 186.8c-11.934-7.035-25.847-11.07-40.703-11.07-16.863 0-32.511 5.2-45.429 14.083l-10.448 94.946 28.088 46.571c8.659 3.195 18.02 4.94 27.789 4.94 14.457 0 28.022-3.822 39.738-10.511l31.428-54.966z" fill="#80dbff"/></g></g></g></g></g></g><g><g><g><g><g><g><path d="m327.166 270.793-30.463-83.993c-11.934-7.035-25.847-11.07-40.703-11.07v160.54c14.457 0 28.022-3.822 39.738-10.511z" fill="#4ab8f7"/></g></g></g></g></g></g><g><path d="m175.73 256c0 34.564 21.846 64.025 52.482 75.33l2.732-6.792-22.538-41.031 22.538-17.915-13.003-31.207 13.003-34.385-20.373-10.186c-21.043 14.47-34.841 38.717-34.841 66.186z" fill="#1dd882"/></g><g><path d="m336.27 256c0-29.476-15.888-55.242-39.568-69.2l-9.123 6.842-22.538 23.116 19.36 10.98-2.601 23.116 36.986 9.716-3.468 9.932-31.785 21.96 12.204 33.295c24.212-13.819 40.533-39.882 40.533-69.757z" fill="#06b26b"/></g></g></g></svg>